<svg width="82" height="15" viewBox="0 0 82 15" fill="none" xmlns="http://www.w3.org/2000/svg">
<g clip-path="url(#clip0_15_21)">
<rect width="20" height="14" rx="2" fill="url(#paint0_linear_15_21)"/>
<path d="M7 10.5L3.5 7L7 3.5" stroke="white" stroke-linecap="round" stroke-linejoin="round"/>
<path d="M13 10.5L16.5 7L13 3.5" stroke="white" stroke-linecap="round" stroke-linejoin="round"/>
</g>
<path d="M23.436 12.264C22.94 12.264 22.516 12.188 22.164 12.036C21.82 11.892 21.556 11.688 21.372 11.424C21.188 11.16 21.096 10.852 21.096 10.5C21.096 10.204 21.152 9.948 21.264 9.732C21.384 9.516 21.544 9.348 21.744 9.228C21.944 9.1 22.168 9.036 22.416 9.036C22.592 9.036 22.744 9.068 22.872 9.132C23.008 9.196 23.108 9.284 23.172 9.396C23.244 9.5 23.28 9.628 23.28 9.78C23.28 9.82 23.276 9.864 23.268 9.912C23.26 9.96 23.252 10.004 23.244 10.044C23.212 10.028 23.172 10.02 23.124 10.02C23.084 10.012 23.044 10.008 23.004 10.008C22.844 10.008 22.708 10.064 22.596 10.176C22.484 10.28 22.428 10.44 22.428 10.656C22.428 10.936 22.54 11.148 22.764 11.292C22.996 11.428 23.28 11.496 23.616 11.496C23.872 11.496 24.112 11.444 24.336 11.34C24.56 11.236 24.74 11.084 24.876 10.884C25.02 10.684 25.092 10.436 25.092 10.14C25.092 9.892 25.028 9.668 24.9 9.468C24.78 9.268 24.624 9.08 24.432 8.904C24.248 8.728 24.048 8.556 23.832 8.388C23.592 8.196 23.36 8 23.136 7.8C22.912 7.592 22.724 7.356 22.572 7.092C22.428 6.828 22.356 6.52 22.356 6.168C22.356 5.8 22.436 5.472 22.596 5.184C22.756 4.888 22.968 4.644 23.232 4.452C23.504 4.252 23.812 4.1 24.156 3.996C24.508 3.892 24.872 3.84 25.248 3.84C25.648 3.84 25.996 3.896 26.292 4.008C26.588 4.112 26.816 4.264 26.976 4.464C27.144 4.664 27.228 4.9 27.228 5.172C27.228 5.42 27.18 5.64 27.084 5.832C26.988 6.024 26.856 6.176 26.688 6.288C26.528 6.392 26.348 6.444 26.148 6.444C25.996 6.444 25.864 6.42 25.752 6.372C25.64 6.324 25.56 6.26 25.512 6.18C25.608 6.124 25.696 6.024 25.776 5.88C25.856 5.736 25.896 5.58 25.896 5.412C25.896 5.164 25.82 4.968 25.668 4.824C25.516 4.672 25.268 4.596 24.924 4.596C24.572 4.596 24.276 4.7 24.036 4.908C23.804 5.116 23.688 5.396 23.688 5.748C23.688 5.996 23.752 6.224 23.88 6.432C24.008 6.632 24.172 6.82 24.372 6.996C24.58 7.164 24.792 7.332 25.008 7.5C25.248 7.676 25.476 7.868 25.692 8.076C25.916 8.284 26.096 8.524 26.232 8.796C26.376 9.06 26.448 9.372 26.448 9.732C26.448 10.132 26.36 10.492 26.184 10.812C26.016 11.124 25.784 11.388 25.488 11.604C25.2 11.82 24.876 11.984 24.516 12.096C24.156 12.208 23.796 12.264 23.436 12.264ZM31.8703 12.24C31.6223 12.24 31.4223 12.168 31.2703 12.024C31.1263 11.888 31.0543 11.66 31.0543 11.34C31.0543 11.164 31.0783 10.936 31.1263 10.656C31.1823 10.376 31.2463 10.08 31.3183 9.768C31.3903 9.448 31.4623 9.132 31.5343 8.82C31.6063 8.508 31.6663 8.228 31.7143 7.98C31.7703 7.724 31.7983 7.524 31.7983 7.38C31.7983 7.116 31.7303 6.916 31.5943 6.78C31.4583 6.636 31.2783 6.564 31.0543 6.564C30.7423 6.564 30.4783 6.672 30.2623 6.888C30.0463 7.104 29.8703 7.376 29.7343 7.704C29.5983 8.024 29.4983 8.344 29.4343 8.664L28.7863 12L27.4183 12.144L28.6423 5.88L29.7823 5.736L29.6383 6.816C29.8543 6.432 30.1423 6.14 30.5023 5.94C30.8623 5.74 31.2423 5.64 31.6423 5.64C32.1303 5.64 32.5023 5.768 32.7583 6.024C33.0143 6.272 33.1423 6.624 33.1423 7.08C33.1423 7.304 33.1183 7.564 33.0703 7.86C33.0223 8.156 32.9583 8.472 32.8783 8.808C32.8063 9.136 32.7343 9.456 32.6623 9.768C32.5903 10.08 32.5263 10.364 32.4703 10.62C32.4223 10.876 32.3983 11.076 32.3983 11.22C32.3983 11.34 32.4223 11.44 32.4703 11.52C32.5183 11.6 32.6143 11.648 32.7583 11.664C32.7103 11.864 32.6023 12.008 32.4343 12.096C32.2663 12.192 32.0783 12.24 31.8703 12.24ZM34.8205 12.24C34.5645 12.24 34.3645 12.168 34.2205 12.024C34.0765 11.88 34.0045 11.68 34.0045 11.424C34.0045 11.328 34.0125 11.212 34.0285 11.076C34.0445 10.94 34.0645 10.8 34.0885 10.656C34.1125 10.504 34.1365 10.364 34.1605 10.236C34.1925 10.1 34.2165 9.984 34.2325 9.888L35.0485 5.88L36.4165 5.736L35.4085 10.752C35.4005 10.816 35.3885 10.9 35.3725 11.004C35.3565 11.1 35.3485 11.184 35.3485 11.256C35.3485 11.376 35.3765 11.472 35.4325 11.544C35.4965 11.616 35.5885 11.656 35.7085 11.664C35.6605 11.864 35.5485 12.008 35.3725 12.096C35.2045 12.192 35.0205 12.24 34.8205 12.24ZM36.0325 4.824C35.7765 4.824 35.5645 4.764 35.3965 4.644C35.2285 4.516 35.1445 4.328 35.1445 4.08C35.1445 3.816 35.2325 3.624 35.4085 3.504C35.5845 3.376 35.8005 3.312 36.0565 3.312C36.3125 3.312 36.5245 3.376 36.6925 3.504C36.8605 3.624 36.9445 3.808 36.9445 4.056C36.9445 4.32 36.8565 4.516 36.6805 4.644C36.5045 4.764 36.2885 4.824 36.0325 4.824ZM39.3791 12.24C39.1551 12.24 38.9711 12.216 38.8271 12.168C38.6911 12.12 38.5031 12.06 38.2631 11.988L37.0871 11.892L38.2391 5.88L39.3911 5.736L39.2471 6.816C39.4631 6.464 39.7311 6.18 40.0511 5.964C40.3791 5.748 40.7551 5.64 41.1791 5.64C41.5631 5.64 41.8751 5.74 42.1151 5.94C42.3551 6.132 42.5311 6.4 42.6431 6.744C42.7551 7.08 42.8111 7.468 42.8111 7.908C42.8111 8.436 42.7391 8.956 42.5951 9.468C42.4591 9.98 42.2511 10.444 41.9711 10.86C41.6911 11.276 41.3351 11.612 40.9031 11.868C40.4711 12.116 39.9631 12.24 39.3791 12.24ZM37.6391 14.4C37.4311 14.4 37.2391 14.336 37.0631 14.208C36.8951 14.08 36.8111 13.852 36.8111 13.524C36.8111 13.46 36.8231 13.348 36.8471 13.188C36.8711 13.036 36.8991 12.856 36.9311 12.648C36.9711 12.448 37.0111 12.236 37.0511 12.012C37.0991 11.788 37.1431 11.584 37.1831 11.4L38.5031 11.424C38.4311 11.816 38.3671 12.224 38.3111 12.648C38.2551 13.08 38.2271 13.452 38.2271 13.764C38.2271 13.844 38.2311 13.924 38.2391 14.004C38.2471 14.084 38.2591 14.156 38.2751 14.22C38.1951 14.268 38.0991 14.308 37.9871 14.34C37.8751 14.38 37.7591 14.4 37.6391 14.4ZM39.5831 11.52C39.8231 11.52 40.0391 11.448 40.2311 11.304C40.4311 11.16 40.6031 10.964 40.7471 10.716C40.8991 10.468 41.0231 10.18 41.1191 9.852C41.2151 9.524 41.2871 9.176 41.3351 8.808C41.3911 8.432 41.4191 8.056 41.4191 7.68C41.4191 7.344 41.3631 7.076 41.2511 6.876C41.1391 6.668 40.9391 6.564 40.6511 6.564C40.3631 6.564 40.1151 6.648 39.9071 6.816C39.7071 6.984 39.5431 7.2 39.4151 7.464C39.2871 7.728 39.1951 8.004 39.1391 8.292L38.6111 11.148C38.7551 11.276 38.9111 11.372 39.0791 11.436C39.2551 11.492 39.4231 11.52 39.5831 11.52ZM45.8479 12.24C45.6239 12.24 45.4399 12.216 45.2959 12.168C45.1599 12.12 44.9719 12.06 44.7319 11.988L43.5559 11.892L44.7079 5.88L45.8599 5.736L45.7159 6.816C45.9319 6.464 46.1999 6.18 46.5199 5.964C46.8479 5.748 47.2239 5.64 47.6479 5.64C48.0319 5.64 48.3439 5.74 48.5839 5.94C48.8239 6.132 48.9999 6.4 49.1119 6.744C49.2239 7.08 49.2799 7.468 49.2799 7.908C49.2799 8.436 49.2079 8.956 49.0639 9.468C48.9279 9.98 48.7199 10.444 48.4399 10.86C48.1599 11.276 47.8039 11.612 47.3719 11.868C46.9399 12.116 46.4319 12.24 45.8479 12.24ZM44.1079 14.4C43.8999 14.4 43.7079 14.336 43.5319 14.208C43.3639 14.08 43.2799 13.852 43.2799 13.524C43.2799 13.46 43.2919 13.348 43.3159 13.188C43.3399 13.036 43.3679 12.856 43.3999 12.648C43.4399 12.448 43.4799 12.236 43.5199 12.012C43.5679 11.788 43.6119 11.584 43.6519 11.4L44.9719 11.424C44.8999 11.816 44.8359 12.224 44.7799 12.648C44.7239 13.08 44.6959 13.452 44.6959 13.764C44.6959 13.844 44.6999 13.924 44.7079 14.004C44.7159 14.084 44.7279 14.156 44.7439 14.22C44.6639 14.268 44.5679 14.308 44.4559 14.34C44.3439 14.38 44.2279 14.4 44.1079 14.4ZM46.0519 11.52C46.2919 11.52 46.5079 11.448 46.6999 11.304C46.8999 11.16 47.0719 10.964 47.2159 10.716C47.3679 10.468 47.4919 10.18 47.5879 9.852C47.6839 9.524 47.7559 9.176 47.8039 8.808C47.8599 8.432 47.8879 8.056 47.8879 7.68C47.8879 7.344 47.8319 7.076 47.7199 6.876C47.6079 6.668 47.4079 6.564 47.1199 6.564C46.8319 6.564 46.5839 6.648 46.3759 6.816C46.1759 6.984 46.0119 7.2 45.8839 7.464C45.7559 7.728 45.6639 8.004 45.6079 8.292L45.0799 11.148C45.2239 11.276 45.3799 11.372 45.5479 11.436C45.7239 11.492 45.8919 11.52 46.0519 11.52ZM52.2206 12.24C51.7646 12.24 51.3686 12.156 51.0326 11.988C50.7046 11.812 50.4526 11.548 50.2766 11.196C50.1006 10.844 50.0126 10.4 50.0126 9.864C50.0126 9.36 50.0806 8.86 50.2166 8.364C50.3606 7.86 50.5726 7.404 50.8526 6.996C51.1326 6.588 51.4886 6.26 51.9206 6.012C52.3606 5.764 52.8766 5.64 53.4686 5.64C53.7806 5.64 54.0606 5.684 54.3086 5.772C54.5566 5.86 54.7526 6.004 54.8966 6.204C55.0406 6.404 55.1126 6.676 55.1126 7.02C55.1126 7.484 54.9726 7.876 54.6926 8.196C54.4206 8.508 54.0566 8.748 53.6006 8.916C53.1446 9.076 52.6406 9.156 52.0886 9.156C51.9846 9.156 51.8686 9.156 51.7406 9.156C51.6206 9.148 51.5206 9.14 51.4406 9.132C51.4326 9.26 51.4246 9.388 51.4166 9.516C51.4086 9.636 51.4046 9.748 51.4046 9.852C51.4046 10.284 51.4846 10.624 51.6446 10.872C51.8046 11.112 52.0966 11.232 52.5206 11.232C52.8646 11.232 53.1726 11.152 53.4446 10.992C53.7166 10.824 53.9286 10.588 54.0806 10.284C54.1926 10.316 54.2686 10.38 54.3086 10.476C54.3486 10.572 54.3686 10.672 54.3686 10.776C54.3686 11.016 54.2846 11.248 54.1166 11.472C53.9486 11.696 53.7046 11.88 53.3846 12.024C53.0646 12.168 52.6766 12.24 52.2206 12.24ZM51.5246 8.544C51.7966 8.544 52.0646 8.516 52.3286 8.46C52.6006 8.404 52.8486 8.316 53.0726 8.196C53.2966 8.068 53.4726 7.908 53.6006 7.716C53.7366 7.516 53.8046 7.284 53.8046 7.02C53.8046 6.788 53.7486 6.616 53.6366 6.504C53.5326 6.384 53.3806 6.324 53.1806 6.324C52.9566 6.324 52.7486 6.396 52.5566 6.54C52.3726 6.676 52.2126 6.856 52.0766 7.08C51.9406 7.304 51.8246 7.544 51.7286 7.8C51.6406 8.056 51.5726 8.304 51.5246 8.544ZM56.721 12.252C56.497 12.252 56.301 12.18 56.133 12.036C55.965 11.892 55.881 11.684 55.881 11.412C55.881 11.252 55.905 11.028 55.953 10.74C56.001 10.444 56.057 10.132 56.121 9.804C56.185 9.476 56.249 9.164 56.313 8.868C56.385 8.564 56.437 8.32 56.469 8.136L56.817 6.42H55.965L56.013 6.06C56.397 5.916 56.777 5.724 57.153 5.484C57.529 5.244 57.861 4.98 58.149 4.692H58.521L58.281 5.88H59.217L59.109 6.42H58.161L57.333 10.5C57.309 10.628 57.289 10.744 57.273 10.848C57.257 10.944 57.245 11.036 57.237 11.124C57.229 11.34 57.269 11.492 57.357 11.58C57.445 11.66 57.605 11.676 57.837 11.628C57.765 11.78 57.673 11.9 57.561 11.988C57.457 12.076 57.333 12.14 57.189 12.18C57.045 12.228 56.889 12.252 56.721 12.252Z" fill="url(#paint1_linear_15_21)"/>
<path d="M65.696 12.084L67.1 4.536C67.156 4.264 67.232 4.044 67.328 3.876C67.432 3.7 67.564 3.572 67.724 3.492C67.892 3.404 68.092 3.36 68.324 3.36C68.476 3.36 68.616 3.384 68.744 3.432C68.88 3.48 68.968 3.56 69.008 3.672C68.904 3.76 68.812 3.868 68.732 3.996C68.66 4.124 68.596 4.284 68.54 4.476C68.492 4.66 68.44 4.884 68.384 5.148L67.112 11.916L65.696 12.084ZM61.952 12.588C61.8 12.588 61.656 12.56 61.52 12.504C61.384 12.448 61.296 12.372 61.256 12.276C61.352 12.212 61.436 12.132 61.508 12.036C61.58 11.94 61.64 11.82 61.688 11.676C61.744 11.524 61.792 11.34 61.832 11.124L62.828 5.808C62.9 5.432 63.008 5.12 63.152 4.872C63.296 4.624 63.488 4.436 63.728 4.308C63.968 4.172 64.26 4.096 64.604 4.08L63.176 11.388C63.12 11.668 63.04 11.896 62.936 12.072C62.84 12.256 62.712 12.388 62.552 12.468C62.392 12.548 62.192 12.588 61.952 12.588ZM60.92 7.32C60.68 7.32 60.472 7.264 60.296 7.152C60.128 7.032 59.996 6.868 59.9 6.66C59.804 6.452 59.756 6.208 59.756 5.928C59.756 5.544 59.848 5.172 60.032 4.812C60.224 4.444 60.512 4.144 60.896 3.912C61.28 3.68 61.768 3.564 62.36 3.564C62.608 3.564 62.832 3.588 63.032 3.636C63.24 3.676 63.432 3.732 63.608 3.804C63.792 3.868 63.964 3.928 64.124 3.984C64.284 4.032 64.44 4.064 64.592 4.08L63.524 4.452L63.5 4.416C63.452 4.384 63.368 4.34 63.248 4.284C63.128 4.228 62.928 4.2 62.648 4.2C62.168 4.2 61.792 4.348 61.52 4.644C61.256 4.94 61.124 5.352 61.124 5.88C61.124 6.104 61.152 6.324 61.208 6.54C61.264 6.756 61.348 6.968 61.46 7.176C61.38 7.224 61.292 7.26 61.196 7.284C61.108 7.308 61.016 7.32 60.92 7.32ZM63.344 8.52L63.488 7.68H66.992L66.836 8.52H63.344ZM70.7097 12.24C70.3177 12.24 70.0017 12.164 69.7617 12.012C69.5297 11.868 69.3617 11.664 69.2577 11.4C69.1537 11.136 69.1017 10.84 69.1017 10.512C69.1017 10.28 69.1297 9.976 69.1857 9.6C69.2497 9.224 69.3417 8.736 69.4617 8.136C69.5897 7.536 69.7537 6.784 69.9537 5.88L71.2617 5.736C71.0937 6.552 70.9537 7.228 70.8417 7.764C70.7297 8.292 70.6417 8.724 70.5777 9.06C70.5217 9.396 70.4817 9.672 70.4577 9.888C70.4337 10.096 70.4217 10.284 70.4217 10.452C70.4217 10.628 70.4417 10.8 70.4817 10.968C70.5297 11.128 70.6137 11.26 70.7337 11.364C70.8537 11.468 71.0137 11.52 71.2137 11.52C71.5017 11.52 71.7417 11.424 71.9337 11.232C72.1257 11.032 72.2777 10.784 72.3897 10.488C72.5097 10.192 72.5937 9.896 72.6417 9.6L73.3617 5.88L74.7177 5.736L73.7457 10.752C73.7377 10.824 73.7257 10.908 73.7097 11.004C73.6937 11.1 73.6857 11.184 73.6857 11.256C73.6857 11.376 73.7137 11.472 73.7697 11.544C73.8337 11.616 73.9257 11.656 74.0457 11.664C74.0217 11.8 73.9617 11.912 73.8657 12C73.7777 12.08 73.6737 12.14 73.5537 12.18C73.4337 12.22 73.3057 12.24 73.1697 12.24C72.9457 12.24 72.7617 12.18 72.6177 12.06C72.4737 11.948 72.3817 11.78 72.3417 11.556C72.1817 11.796 71.9457 11.968 71.6337 12.072C71.3217 12.184 71.0137 12.24 70.7097 12.24ZM77.515 12.24C77.283 12.24 77.027 12.216 76.747 12.168C76.467 12.128 76.195 12.064 75.931 11.976C75.667 11.88 75.439 11.768 75.247 11.64L76.207 6.732L77.323 6.852C77.531 6.468 77.799 6.172 78.127 5.964C78.455 5.748 78.831 5.64 79.255 5.64C79.663 5.64 79.987 5.74 80.227 5.94C80.475 6.14 80.651 6.412 80.755 6.756C80.867 7.1 80.923 7.484 80.923 7.908C80.923 8.436 80.851 8.956 80.707 9.468C80.571 9.98 80.363 10.448 80.083 10.872C79.803 11.288 79.447 11.62 79.015 11.868C78.591 12.116 78.091 12.24 77.515 12.24ZM77.683 11.52C77.923 11.52 78.139 11.452 78.331 11.316C78.531 11.172 78.703 10.98 78.847 10.74C78.999 10.492 79.127 10.208 79.231 9.888C79.335 9.56 79.411 9.216 79.459 8.856C79.507 8.488 79.531 8.12 79.531 7.752C79.531 7.376 79.475 7.084 79.363 6.876C79.251 6.668 79.055 6.564 78.775 6.564C78.535 6.564 78.323 6.628 78.139 6.756C77.955 6.884 77.799 7.052 77.671 7.26C77.543 7.468 77.435 7.696 77.347 7.944C77.267 8.184 77.203 8.42 77.155 8.652L76.687 11.16C76.839 11.28 77.003 11.372 77.179 11.436C77.355 11.492 77.523 11.52 77.683 11.52ZM77.323 7.008L76.195 6.816C76.259 6.488 76.323 6.128 76.387 5.736C76.451 5.336 76.507 4.948 76.555 4.572C76.603 4.188 76.627 3.856 76.627 3.576C76.635 3.48 76.635 3.396 76.627 3.324C76.627 3.252 76.619 3.184 76.603 3.12C76.683 3.064 76.779 3.024 76.891 3C77.003 2.968 77.115 2.952 77.227 2.952C77.443 2.952 77.639 3.016 77.815 3.144C77.991 3.264 78.079 3.484 78.079 3.804C78.079 4.036 78.043 4.328 77.971 4.68C77.907 5.024 77.819 5.4 77.707 5.808C77.595 6.208 77.467 6.608 77.323 7.008Z" fill="#D9D9D9"/>
<defs>
<linearGradient id="paint0_linear_15_21" x1="0" y1="7" x2="20" y2="7" gradientUnits="userSpaceOnUse">
<stop stop-color="#2563EB"/>
<stop offset="1" stop-color="#1E40AF"/>
</linearGradient>
<linearGradient id="paint1_linear_15_21" x1="21" y1="7" x2="59" y2="7" gradientUnits="userSpaceOnUse">
<stop stop-color="#2563EB"/>
<stop offset="1" stop-color="#1E40AF"/>
</linearGradient>
<clipPath id="clip0_15_21">
<rect width="20" height="14" rx="2" fill="white"/>
</clipPath>
</defs>
</svg>
